<svg width="16" height="16" viewBox="0 0 16 16" fill="none" xmlns="http://www.w3.org/2000/svg">
<path d="M8 9.00004C7.73478 9.00004 7.48043 8.89468 7.29289 8.70714C7.10536 8.51961 7 8.26525 7 8.00004C7 7.73482 7.10536 7.48047 7.29289 7.29293C7.48043 7.10539 7.73478 7.00004 8 7.00004C8.26522 7.00004 8.51957 7.10539 8.70711 7.29293C8.89464 7.48047 9 7.73482 9 8.00004C9 8.26525 8.89464 8.51961 8.70711 8.70714C8.51957 8.89468 8.26522 9.00004 8 9.00004ZM7.648 10.996C7.76467 11.136 7.882 11.272 8 11.402C8.118 11.272 8.23533 11.1367 8.352 10.996C8.11736 11.001 7.88264 11.001 7.648 10.996ZM6.318 10.9127C5.80604 10.8594 5.29747 10.7775 4.79467 10.6674C4.74467 10.9007 4.70667 11.1274 4.68133 11.3447C4.55467 12.4 4.73133 13.0414 5 13.196C5.26867 13.3514 5.912 13.1834 6.76333 12.5467C6.93867 12.4154 7.11533 12.2694 7.29267 12.11C6.94567 11.7294 6.62027 11.3297 6.318 10.9127ZM11.2053 10.6674C10.7273 10.774 10.2167 10.8567 9.682 10.9127C9.37973 11.3297 9.05433 11.7294 8.70733 12.11C8.88467 12.27 9.06133 12.4154 9.23667 12.5467C10.088 13.1834 10.7313 13.3514 11 13.196C11.2687 13.0414 11.4447 12.4 11.3193 11.3447C11.2918 11.1173 11.254 10.8913 11.206 10.6674H11.2053ZM12.172 10.4094C12.5567 12.1687 12.3547 13.5694 11.5 14.0627C10.6453 14.556 9.33133 14.0307 8 12.818C6.66867 14.0307 5.35467 14.5554 4.5 14.062C3.64533 13.5687 3.44333 12.1687 3.82733 10.4087C2.11133 9.8627 1 8.9867 1 8.00004C1 7.01337 2.11133 6.13804 3.82733 5.5907C3.44333 3.83137 3.64533 2.4307 4.5 1.93737C5.35467 1.44404 6.66867 1.96937 8 3.18204C9.33133 1.96937 10.6453 1.4447 11.5 1.93804C12.3547 2.43137 12.5567 3.83137 12.1727 5.59137C13.8887 6.13737 15 7.01337 15 8.00004C15 8.9867 13.8887 9.86204 12.1727 10.4094H12.172ZM7.292 3.89004C7.12246 3.73657 6.94606 3.59087 6.76333 3.45337C5.912 2.8167 5.26867 2.6487 5 2.80404C4.73133 2.9587 4.55533 3.60004 4.68067 4.65537C4.70733 4.87337 4.74467 5.09937 4.794 5.3327C5.29702 5.22252 5.80582 5.14062 6.318 5.08737C6.63467 4.65204 6.96133 4.25137 7.29267 3.89004H7.292ZM9.682 5.08737C10.2167 5.14337 10.7273 5.2267 11.2053 5.3327C11.2553 5.09937 11.2933 4.8727 11.3187 4.65537C11.4453 3.60004 11.2687 2.9587 11 2.80404C10.7313 2.6487 10.088 2.8167 9.23667 3.45337C9.05371 3.59085 8.87709 3.73656 8.70733 3.89004C9.03867 4.25137 9.36533 4.65204 9.682 5.08737ZM8.352 5.00404C8.23533 4.86404 8.118 4.72804 8 4.59804C7.882 4.72804 7.76467 4.86337 7.648 5.00404C7.88264 4.99906 8.11736 4.99906 8.352 5.00404ZM5.58133 9.8027C5.4597 9.6021 5.34235 9.39895 5.22933 9.19337C5.166 9.3647 5.10733 9.53337 5.054 9.7007C5.22533 9.73804 5.40133 9.77204 5.58067 9.8027H5.58133ZM6.86933 9.9587C7.62207 10.0146 8.37793 10.0146 9.13067 9.9587C9.55547 9.33467 9.9334 8.67998 10.2613 8.00004C9.9334 7.32009 9.55547 6.6654 9.13067 6.04137C8.37793 5.98546 7.62207 5.98546 6.86933 6.04137C6.44453 6.6654 6.06661 7.32009 5.73867 8.00004C6.06661 8.67998 6.44453 9.33467 6.86933 9.9587ZM10.7707 6.8067C10.834 6.63537 10.8927 6.4667 10.946 6.29937C10.7712 6.26144 10.5956 6.22743 10.4193 6.19737C10.5407 6.39797 10.6579 6.60113 10.7707 6.8067ZM4.08667 6.55804C3.86 6.63137 3.64533 6.71137 3.444 6.79804C2.46733 7.2167 2 7.69004 2 8.00004C2 8.31004 2.46667 8.78337 3.444 9.20204C3.64533 9.2887 3.86 9.3687 4.08667 9.44204C4.23467 8.97537 4.418 8.49137 4.63667 8.00004C4.42655 7.53002 4.24293 7.0486 4.08667 6.55804ZM5.05333 6.29937C5.10733 6.46604 5.166 6.63537 5.22933 6.80604C5.34235 6.60068 5.45971 6.39775 5.58133 6.19737C5.40133 6.22803 5.22533 6.26204 5.054 6.29937H5.05333ZM11.9133 9.44204C12.14 9.3687 12.3547 9.2887 12.556 9.20204C13.5327 8.78337 14 8.31004 14 8.00004C14 7.69004 13.5333 7.2167 12.556 6.79804C12.3455 6.70837 12.1311 6.62829 11.9133 6.55804C11.7653 7.0247 11.582 7.5087 11.3633 8.00004C11.582 8.49137 11.7653 8.9747 11.9133 9.44204ZM10.9467 9.7007C10.8927 9.53404 10.834 9.3647 10.7707 9.19404C10.6576 9.39939 10.5403 9.60232 10.4187 9.8027C10.5987 9.77204 10.7747 9.73804 10.946 9.7007H10.9467Z" fill="#14F195"/>
</svg>
