<svg width="16" height="16" viewBox="0 0 16 16" fill="none" xmlns="http://www.w3.org/2000/svg">
<path d="M8 9.00001C7.73478 9.00001 7.48043 8.89465 7.29289 8.70711C7.10536 8.51958 7 8.26522 7 8.00001C7 7.73479 7.10536 7.48043 7.29289 7.2929C7.48043 7.10536 7.73478 7 8 7C8.26522 7 8.51957 7.10536 8.70711 7.2929C8.89464 7.48043 9 7.73479 9 8.00001C9 8.26522 8.89464 8.51958 8.70711 8.70711C8.51957 8.89465 8.26522 9.00001 8 9.00001ZM7.648 10.996C7.76467 11.136 7.882 11.272 8 11.402C8.118 11.272 8.23533 11.1367 8.352 10.996C8.11736 11.001 7.88264 11.001 7.648 10.996ZM6.318 10.9127C5.80604 10.8594 5.29747 10.7775 4.79467 10.6673C4.74467 10.9007 4.70667 11.1273 4.68133 11.3447C4.55467 12.4 4.73133 13.0413 5 13.196C5.26867 13.3513 5.912 13.1833 6.76333 12.5467C6.93867 12.4153 7.11533 12.2693 7.29267 12.11C6.94567 11.7294 6.62027 11.3297 6.318 10.9127ZM11.2053 10.6673C10.7273 10.774 10.2167 10.8567 9.682 10.9127C9.37973 11.3297 9.05433 11.7294 8.70733 12.11C8.88467 12.27 9.06133 12.4153 9.23667 12.5467C10.088 13.1833 10.7313 13.3513 11 13.196C11.2687 13.0413 11.4447 12.4 11.3193 11.3447C11.2918 11.1173 11.254 10.8913 11.206 10.6673H11.2053ZM12.172 10.4093C12.5567 12.1687 12.3547 13.5693 11.5 14.0627C10.6453 14.556 9.33133 14.0307 8 12.818C6.66867 14.0307 5.35467 14.5553 4.5 14.062C3.64533 13.5687 3.44333 12.1687 3.82733 10.4087C2.11133 9.86267 1 8.98667 1 8.00001C1 7.01334 2.11133 6.138 3.82733 5.59067C3.44333 3.83134 3.64533 2.43067 4.5 1.93734C5.35467 1.444 6.66867 1.96934 8 3.182C9.33133 1.96934 10.6453 1.44467 11.5 1.938C12.3547 2.43134 12.5567 3.83134 12.1727 5.59134C13.8887 6.13734 15 7.01334 15 8.00001C15 8.98667 13.8887 9.86201 12.1727 10.4093H12.172ZM7.292 3.89001C7.12246 3.73654 6.94606 3.59084 6.76333 3.45334C5.912 2.81667 5.26867 2.64867 5 2.804C4.73133 2.95867 4.55533 3.6 4.68067 4.65534C4.70733 4.87334 4.74467 5.09934 4.794 5.33267C5.29702 5.22249 5.80582 5.14059 6.318 5.08734C6.63467 4.652 6.96133 4.25134 7.29267 3.89001H7.292ZM9.682 5.08734C10.2167 5.14334 10.7273 5.22667 11.2053 5.33267C11.2553 5.09934 11.2933 4.87267 11.3187 4.65534C11.4453 3.6 11.2687 2.95867 11 2.804C10.7313 2.64867 10.088 2.81667 9.23667 3.45334C9.05371 3.59082 8.87709 3.73653 8.70733 3.89001C9.03867 4.25134 9.36533 4.652 9.682 5.08734ZM8.352 5.004C8.23533 4.864 8.118 4.728 8 4.598C7.882 4.728 7.76467 4.86334 7.648 5.004C7.88264 4.99903 8.11736 4.99903 8.352 5.004ZM5.58133 9.80267C5.4597 9.60207 5.34235 9.39892 5.22933 9.19334C5.166 9.36467 5.10733 9.53334 5.054 9.70067C5.22533 9.73801 5.40133 9.77201 5.58067 9.80267H5.58133ZM6.86933 9.95867C7.62207 10.0146 8.37793 10.0146 9.13067 9.95867C9.55547 9.33464 9.9334 8.67995 10.2613 8.00001C9.9334 7.32006 9.55547 6.66537 9.13067 6.04134C8.37793 5.98543 7.62207 5.98543 6.86933 6.04134C6.44453 6.66537 6.06661 7.32006 5.73867 8.00001C6.06661 8.67995 6.44453 9.33464 6.86933 9.95867ZM10.7707 6.80667C10.834 6.63534 10.8927 6.46667 10.946 6.29934C10.7712 6.26141 10.5956 6.2274 10.4193 6.19734C10.5407 6.39794 10.6579 6.6011 10.7707 6.80667ZM4.08667 6.558C3.86 6.63134 3.64533 6.71134 3.444 6.798C2.46733 7.21667 2 7.69001 2 8.00001C2 8.31001 2.46667 8.78334 3.444 9.20201C3.64533 9.28867 3.86 9.36867 4.08667 9.44201C4.23467 8.97534 4.418 8.49134 4.63667 8.00001C4.42655 7.52999 4.24293 7.04856 4.08667 6.558ZM5.05333 6.29934C5.10733 6.46601 5.166 6.63534 5.22933 6.806C5.34235 6.60065 5.45971 6.39772 5.58133 6.19734C5.40133 6.228 5.22533 6.26201 5.054 6.29934H5.05333ZM11.9133 9.44201C12.14 9.36867 12.3547 9.28867 12.556 9.20201C13.5327 8.78334 14 8.31001 14 8.00001C14 7.69001 13.5333 7.21667 12.556 6.798C12.3455 6.70834 12.1311 6.62826 11.9133 6.558C11.7653 7.02467 11.582 7.50867 11.3633 8.00001C11.582 8.49134 11.7653 8.97467 11.9133 9.44201ZM10.9467 9.70067C10.8927 9.53401 10.834 9.36467 10.7707 9.19401C10.6576 9.39936 10.5403 9.60229 10.4187 9.80267C10.5987 9.77201 10.7747 9.73801 10.946 9.70067H10.9467Z" fill="#24346F"/>
</svg>
