<svg width="32" height="32" viewBox="0 0 32 32" fill="none" xmlns="http://www.w3.org/2000/svg">
<rect width="32" height="32" rx="16" fill="white" fill-opacity="0.08"/>
<path d="M23.052 14.1272C22.5164 14.1272 22.0451 14.3486 21.6987 14.6949C20.424 13.813 18.7065 13.2453 16.8034 13.1846L17.7925 8.72841L20.9418 9.43539C20.9418 10.2067 21.5702 10.8351 22.3414 10.8351C23.127 10.8351 23.759 10.1888 23.759 9.41754C23.759 8.64628 23.1306 8 22.3414 8C21.7916 8 21.3167 8.33207 21.081 8.78554L17.6032 8.01428C17.4283 7.96786 17.2569 8.09284 17.2105 8.2678L16.125 13.181C14.2361 13.2595 12.5365 13.8273 11.2582 14.7092C10.9119 14.3486 10.4227 14.1272 9.88708 14.1272C7.90181 14.1272 7.25196 16.7909 9.06941 17.7014C9.00514 17.9835 8.97657 18.2834 8.97657 18.5834C8.97657 21.5755 12.3472 24 16.4856 24C20.6418 24 24.0125 21.5755 24.0125 18.5834C24.0125 18.2834 23.9804 17.9692 23.9018 17.6871C25.6836 16.773 25.0266 14.1272 23.052 14.1272ZM11.9509 17.8906C11.9509 17.1051 12.5793 16.4731 13.3685 16.4731C14.1397 16.4731 14.7681 17.1015 14.7681 17.8906C14.7681 18.6619 14.1397 19.2903 13.3685 19.2903C12.5829 19.2939 11.9509 18.6619 11.9509 17.8906ZM19.6028 21.2292C18.3031 22.5289 14.636 22.5289 13.3363 21.2292C13.1935 21.1042 13.1935 20.8828 13.3363 20.74C13.4613 20.615 13.6827 20.615 13.8076 20.74C14.8003 21.7576 18.0924 21.7755 19.1279 20.74C19.2529 20.615 19.4742 20.615 19.5992 20.74C19.7456 20.8828 19.7456 21.1042 19.6028 21.2292ZM19.5742 19.2939C18.803 19.2939 18.1745 18.6655 18.1745 17.8942C18.1745 17.1087 18.803 16.4767 19.5742 16.4767C20.3597 16.4767 20.9917 17.1051 20.9917 17.8942C20.9882 18.6619 20.3597 19.2939 19.5742 19.2939Z" fill="white" fill-opacity="0.64"/>
</svg>
