<svg width="32" height="32" viewBox="0 0 32 32" fill="none" xmlns="http://www.w3.org/2000/svg">
<rect width="32" height="32" rx="16" fill="white" fill-opacity="0.08"/>
<path d="M23.0519 14.1272C22.5163 14.1272 22.045 14.3486 21.6986 14.6949C20.4239 13.813 18.7064 13.2453 16.8033 13.1846L17.7924 8.72841L20.9417 9.43539C20.9417 10.2067 21.5701 10.8351 22.3413 10.8351C23.1269 10.8351 23.7589 10.1888 23.7589 9.41754C23.7589 8.64628 23.1305 8 22.3413 8C21.7915 8 21.3166 8.33207 21.0809 8.78554L17.6031 8.01428C17.4282 7.96786 17.2568 8.09284 17.2103 8.2678L16.1249 13.181C14.236 13.2595 12.5364 13.8273 11.2581 14.7092C10.9117 14.3486 10.4226 14.1272 9.88698 14.1272C7.90171 14.1272 7.25185 16.7909 9.0693 17.7014C9.00503 17.9835 8.97647 18.2834 8.97647 18.5834C8.97647 21.5755 12.3471 24 16.4855 24C20.6417 24 24.0124 21.5755 24.0124 18.5834C24.0124 18.2834 23.9803 17.9692 23.9017 17.6871C25.6835 16.773 25.0265 14.1272 23.0519 14.1272ZM11.9508 17.8906C11.9508 17.1051 12.5792 16.4731 13.3683 16.4731C14.1396 16.4731 14.768 17.1015 14.768 17.8906C14.768 18.6619 14.1396 19.2903 13.3683 19.2903C12.5828 19.2939 11.9508 18.6619 11.9508 17.8906ZM19.6027 21.2292C18.303 22.5289 14.6359 22.5289 13.3362 21.2292C13.1934 21.1042 13.1934 20.8828 13.3362 20.74C13.4612 20.615 13.6826 20.615 13.8075 20.74C14.8002 21.7576 18.0923 21.7755 19.1278 20.74C19.2527 20.615 19.4741 20.615 19.5991 20.74C19.7455 20.8828 19.7455 21.1042 19.6027 21.2292ZM19.5741 19.2939C18.8028 19.2939 18.1744 18.6655 18.1744 17.8942C18.1744 17.1087 18.8028 16.4767 19.5741 16.4767C20.3596 16.4767 20.9916 17.1051 20.9916 17.8942C20.9881 18.6619 20.3596 19.2939 19.5741 19.2939Z" fill="white" fill-opacity="0.64"/>
</svg>
