<svg width="756" height="187" viewBox="0 0 756 187" fill="none" xmlns="http://www.w3.org/2000/svg">
<path d="M1.86251 134.133L7.09499 147.448C12.3275 160.762 22.7924 187.391 33.2574 183.784C43.7224 180.178 54.1874 146.337 64.6523 133.935C75.1173 121.534 85.5823 130.572 96.0472 139.617C106.512 148.662 116.977 157.714 127.442 149.487C137.907 141.26 148.372 115.753 158.837 112.221C169.302 108.689 179.767 127.131 190.232 139.914C200.697 152.697 211.162 159.82 221.627 158.695C232.092 157.57 242.557 148.197 253.022 133.642C263.487 119.087 273.952 99.3504 284.417 91.415C294.882 83.4796 305.347 87.3454 315.812 97.4697C326.277 107.594 336.742 123.977 347.207 129.371C357.671 134.765 368.136 129.17 378.601 114.339C389.066 99.5076 399.531 75.4401 409.996 69.2191C420.461 62.9981 430.926 74.6237 441.391 71.8336C451.856 69.0435 462.321 51.8377 472.786 40.9837C483.251 30.1297 493.716 25.6275 504.181 37.4757C514.646 49.3238 525.111 77.5223 535.576 89.3962C546.041 101.27 556.506 96.8197 566.971 84.2629C577.436 71.7062 587.901 51.0432 598.366 47.6982C608.831 44.3532 619.296 58.3261 629.761 66.4252C640.226 74.5244 650.691 76.7498 661.156 74.56C671.621 72.3701 682.086 65.7651 692.551 51.8009C703.015 37.8368 713.48 16.5136 723.945 7.6783C734.41 -1.15698 744.875 2.49566 750.108 4.32197L755.34 6.14829" stroke="url(#paint0_linear_425_424)" stroke-width="4"/>
<defs>
<linearGradient id="paint0_linear_425_424" x1="-368.41" y1="258.173" x2="726.477" y2="-41.6592" gradientUnits="userSpaceOnUse">
<stop stop-color="#9747FF"/>
<stop offset="1" stop-color="#14F195"/>
</linearGradient>
</defs>
</svg>
