<svg width="32" height="32" viewBox="0 0 32 32" fill="none" xmlns="http://www.w3.org/2000/svg">
<rect width="32" height="32" rx="16" fill="white" fill-opacity="0.08"/>
<path d="M25.1095 16.0548C25.1095 11.0527 21.0568 7 16.0548 7C11.0527 7 7 11.0527 7 16.0548C7 20.5741 10.3112 24.3202 14.64 25V18.6723H12.3398V16.0548H14.64V14.0598C14.64 11.7906 15.9909 10.5372 18.06 10.5372C19.0509 10.5372 20.0871 10.7139 20.0871 10.7139V12.9411H18.945C17.8204 12.9411 17.4696 13.6392 17.4696 14.3552V16.0548H19.9808L19.5792 18.6723H17.4696V25C21.7983 24.3202 25.1095 20.5741 25.1095 16.0548Z" fill="white" fill-opacity="0.64"/>
</svg>
