<svg width="32" height="32" viewBox="0 0 32 32" fill="none" xmlns="http://www.w3.org/2000/svg">
<rect width="32" height="32" rx="16" fill="white" fill-opacity="0.08"/>
<path d="M21.6036 10.325C20.1071 8.825 18.1143 8 15.9964 8C11.625 8 8.06786 11.5571 8.06786 15.9286C8.06786 17.325 8.43214 18.6893 9.125 19.8929L8 24L12.2036 22.8964C13.3607 23.5286 14.6643 23.8607 15.9929 23.8607H15.9964C20.3643 23.8607 24 20.3036 24 15.9321C24 13.8143 23.1 11.825 21.6036 10.325ZM15.9964 22.525C14.8107 22.525 13.65 22.2071 12.6393 21.6071L12.4 21.4643L9.90714 22.1179L10.5714 19.6857L10.4143 19.4357C9.75357 18.3857 9.40714 17.175 9.40714 15.9286C9.40714 12.2964 12.3643 9.33929 16 9.33929C17.7607 9.33929 19.4143 10.025 20.6571 11.2714C21.9 12.5179 22.6643 14.1714 22.6607 15.9321C22.6607 19.5679 19.6286 22.525 15.9964 22.525ZM19.6107 17.5893C19.4143 17.4893 18.4393 17.0107 18.2571 16.9464C18.075 16.8786 17.9429 16.8464 17.8107 17.0464C17.6786 17.2464 17.3 17.6893 17.1821 17.825C17.0679 17.9571 16.95 17.975 16.7536 17.875C15.5893 17.2929 14.825 16.8357 14.0571 15.5179C13.8536 15.1679 14.2607 15.1929 14.6393 14.4357C14.7036 14.3036 14.6714 14.1893 14.6214 14.0893C14.5714 13.9893 14.175 13.0143 14.0107 12.6179C13.85 12.2321 13.6857 12.2857 13.5643 12.2786C13.45 12.2714 13.3179 12.2714 13.1857 12.2714C13.0536 12.2714 12.8393 12.3214 12.6571 12.5179C12.475 12.7179 11.9643 13.1964 11.9643 14.1714C11.9643 15.1464 12.675 16.0893 12.7714 16.2214C12.8714 16.3536 14.1679 18.3536 16.1571 19.2143C17.4143 19.7571 17.9071 19.8036 18.5357 19.7107C18.9179 19.6536 19.7071 19.2321 19.8714 18.7679C20.0357 18.3036 20.0357 17.9071 19.9857 17.825C19.9393 17.7357 19.8071 17.6857 19.6107 17.5893Z" fill="white" fill-opacity="0.64"/>
</svg>
