<svg width="20" height="20" viewBox="0 0 20 20" fill="none" xmlns="http://www.w3.org/2000/svg">
<path fill-rule="evenodd" clip-rule="evenodd" d="M4.18951 2.22509C4.81752 1.96431 5.49084 1.83008 6.17085 1.83008C6.85085 1.83008 7.52417 1.96431 8.15219 2.22509C8.78021 2.48586 9.35057 2.86804 9.83057 3.34971L9.83279 3.35193L10 3.52134L10.1672 3.35194L10.1695 3.34971C10.6495 2.86804 11.2198 2.48586 11.8478 2.22509C12.4759 1.96431 13.1492 1.83008 13.8292 1.83008C14.5092 1.83008 15.1825 1.96431 15.8105 2.22509C16.4384 2.48578 17.0086 2.86782 17.4885 3.3493C19.5385 5.39976 19.5979 8.80253 17.1424 11.304L17.1381 11.3084L10.4714 17.975C10.3464 18.1001 10.1768 18.1703 10 18.1703C9.8232 18.1703 9.65364 18.1001 9.52861 17.975L2.85757 11.304C0.402125 8.80257 0.461516 5.39981 2.51149 3.34934C2.99142 2.86784 3.56165 2.48579 4.18951 2.22509ZM6.17085 3.16341C5.66633 3.16341 5.16677 3.26301 4.70082 3.45648C4.23487 3.64996 3.8117 3.93351 3.45557 4.29088L3.45475 4.2917C1.97237 5.77408 1.81484 8.3364 3.80697 10.3678L10 16.5608L16.1931 10.3678C18.1852 8.33638 18.0277 5.77408 16.5453 4.2917L16.5445 4.29088C16.1883 3.93351 15.7652 3.64996 15.2992 3.45648C14.8333 3.26301 14.3337 3.16341 13.8292 3.16341C13.3247 3.16341 12.8251 3.26301 12.3592 3.45648C11.8937 3.64976 11.4709 3.93292 11.115 4.28976C11.1146 4.29013 11.1143 4.29051 11.1139 4.29088L10.4745 4.93865C10.3492 5.06554 10.1783 5.13696 10 5.13696C9.82171 5.13696 9.65084 5.06554 9.52558 4.93865L8.88613 4.29088C8.88575 4.29051 8.88538 4.29013 8.88501 4.28976C8.52911 3.93292 8.10634 3.64976 7.64087 3.45648C7.17493 3.26301 6.67537 3.16341 6.17085 3.16341Z" fill="#1A181E"/>
</svg>
