<svg width="20" height="20" viewBox="0 0 20 20" fill="none" xmlns="http://www.w3.org/2000/svg">
<path fill-rule="evenodd" clip-rule="evenodd" d="M9.99996 2.33333C8.40866 2.33333 6.88254 2.96547 5.75732 4.09069C4.6321 5.21591 3.99996 6.74203 3.99996 8.33333C3.99996 10.57 5.51361 12.9077 7.1649 14.7654C7.97491 15.6767 8.78699 16.4382 9.39729 16.9722C9.63296 17.1784 9.83783 17.3501 9.99996 17.4827C10.1621 17.3501 10.367 17.1784 10.6026 16.9722C11.2129 16.4382 12.025 15.6767 12.835 14.7654C14.4863 12.9077 16 10.57 16 8.33333C16 6.74203 15.3678 5.21591 14.2426 4.09069C13.1174 2.96547 11.5913 2.33333 9.99996 2.33333ZM9.99996 18.3333C9.59996 18.8667 9.59981 18.8666 9.59963 18.8664L9.5931 18.8615L9.57674 18.8491C9.56273 18.8384 9.54258 18.823 9.51671 18.8029C9.46496 18.7628 9.39027 18.7042 9.29591 18.6284C9.10724 18.4768 8.83961 18.256 8.51929 17.9757C7.8796 17.4159 7.02501 16.615 6.16835 15.6512C4.48631 13.7589 2.66663 11.0967 2.66663 8.33333C2.66663 6.38841 3.43924 4.52315 4.81451 3.14788C6.18978 1.77262 8.05504 1 9.99996 1C11.9449 1 13.8101 1.77262 15.1854 3.14788C16.5607 4.52315 17.3333 6.38841 17.3333 8.33333C17.3333 11.0967 15.5136 13.7589 13.8316 15.6512C12.9749 16.615 12.1203 17.4159 11.4806 17.9757C11.1603 18.256 10.8927 18.4768 10.704 18.6284C10.6097 18.7042 10.535 18.7628 10.4832 18.8029C10.4573 18.823 10.4372 18.8384 10.4232 18.8491L10.4068 18.8615L10.4022 18.865L10.4008 18.8661C10.4006 18.8662 10.4 18.8667 9.99996 18.3333ZM9.99996 18.3333L10.4 18.8667C10.1629 19.0444 9.83667 19.0442 9.59963 18.8664L9.99996 18.3333Z" fill="#593DA6"/>
<path fill-rule="evenodd" clip-rule="evenodd" d="M10 6.50008C8.98752 6.50008 8.16671 7.32089 8.16671 8.33341C8.16671 9.34594 8.98752 10.1667 10 10.1667C11.0126 10.1667 11.8334 9.34594 11.8334 8.33341C11.8334 7.32089 11.0126 6.50008 10 6.50008ZM6.83337 8.33341C6.83337 6.58451 8.25114 5.16675 10 5.16675C11.7489 5.16675 13.1667 6.58451 13.1667 8.33341C13.1667 10.0823 11.7489 11.5001 10 11.5001C8.25114 11.5001 6.83337 10.0823 6.83337 8.33341Z" fill="#593DA6"/>
</svg>
