<svg width="24" height="24" viewBox="0 0 24 24" fill="none" xmlns="http://www.w3.org/2000/svg">
<path fill-rule="evenodd" clip-rule="evenodd" d="M3.20001 12C3.20001 11.5581 3.55818 11.2 4.00001 11.2H20C20.4418 11.2 20.8 11.5581 20.8 12C20.8 12.4418 20.4418 12.8 20 12.8H4.00001C3.55818 12.8 3.20001 12.4418 3.20001 12Z" fill="#1A181E"/>
<path fill-rule="evenodd" clip-rule="evenodd" d="M3.20001 5.99995C3.20001 5.55812 3.55818 5.19995 4.00001 5.19995H20C20.4418 5.19995 20.8 5.55812 20.8 5.99995C20.8 6.44178 20.4418 6.79995 20 6.79995H4.00001C3.55818 6.79995 3.20001 6.44178 3.20001 5.99995Z" fill="#1A181E"/>
<path fill-rule="evenodd" clip-rule="evenodd" d="M3.20001 18C3.20001 17.5581 3.55818 17.2 4.00001 17.2H20C20.4418 17.2 20.8 17.5581 20.8 18C20.8 18.4418 20.4418 18.8 20 18.8H4.00001C3.55818 18.8 3.20001 18.4418 3.20001 18Z" fill="#1A181E"/>
</svg>
