<svg width="20" height="20" viewBox="0 0 20 20" fill="none" xmlns="http://www.w3.org/2000/svg">
<path d="M15.9583 18.1666C15.875 18.1666 15.7916 18.1666 15.7916 18.1666C13.375 17.9166 11.0416 17.0833 8.95829 15.7499C7.04163 14.5833 5.45829 12.9166 4.20829 10.9999C2.87496 8.99992 2.04163 6.66658 1.79163 4.24992C1.79163 3.91659 1.79163 3.66659 1.87496 3.33325C1.95829 2.99992 2.12496 2.74992 2.37496 2.49992C2.54163 2.24992 2.79163 2.08325 3.12496 1.99992C3.37496 1.91659 3.70829 1.83325 4.04163 1.83325H6.29163C6.79163 1.83325 7.29163 1.99992 7.70829 2.33325C8.12496 2.66659 8.37496 3.16659 8.45829 3.66659C8.54163 4.33325 8.70829 4.99992 8.95829 5.66659C9.12496 6.08325 9.12496 6.49992 9.04163 6.91659C8.95829 7.33325 8.79163 7.66659 8.45829 7.99992L7.87496 8.58325C8.79163 9.99992 10.0416 11.2499 11.4583 12.1666L12.0416 11.5833C12.375 11.2499 12.7083 11.0833 13.125 10.9999C13.5416 10.9166 13.9583 10.9166 14.375 11.0833C15.0416 11.3333 15.7083 11.4999 16.375 11.5833C16.875 11.6666 17.375 11.9166 17.7083 12.3333C18.0416 12.7499 18.2083 13.2499 18.2083 13.7499V15.9999C18.2083 16.3333 18.125 16.5833 18.0416 16.9166C17.9583 17.1666 17.7083 17.4166 17.5416 17.6666C17.2916 17.8333 17.0416 17.9999 16.7916 18.0833C16.4583 18.1666 16.2083 18.1666 15.9583 18.1666ZM6.20829 3.16659H3.95829C3.87496 3.16659 3.70829 3.16659 3.62496 3.24992C3.54163 3.24992 3.45829 3.33325 3.37496 3.41659C3.29163 3.49992 3.20829 3.66659 3.20829 3.74992C3.20829 3.83325 3.12496 3.99992 3.20829 4.08325C3.45829 6.24992 4.20829 8.41658 5.45829 10.3333C6.54163 12.0833 8.04163 13.5833 9.79163 14.6666C11.625 15.9166 13.7916 16.6666 16.0416 16.9166C16.125 16.9166 16.2916 16.9166 16.375 16.8333C16.4583 16.8333 16.625 16.7499 16.7083 16.6666C16.7916 16.5833 16.875 16.4999 16.875 16.4166C16.9583 16.3333 16.9583 16.1666 16.9583 16.0833V13.8333C16.9583 13.6666 16.875 13.4166 16.7916 13.2499C16.625 13.0833 16.4583 12.9999 16.2916 12.9999C15.5416 12.9166 14.7916 12.7499 14.0416 12.4166C13.875 12.3333 13.7083 12.3333 13.5416 12.4166C13.375 12.4166 13.2083 12.4999 13.125 12.6666L12.2083 13.5833C11.9583 13.8333 11.7083 13.8333 11.375 13.6666C9.37496 12.4999 7.70829 10.9166 6.62496 8.91658C6.45829 8.66658 6.54163 8.33325 6.70829 8.08325L7.45829 6.99992C7.54163 6.91658 7.62496 6.74992 7.70829 6.58325C7.70829 6.41658 7.70829 6.24992 7.70829 6.08325C7.37496 5.41659 7.20829 4.66658 7.04163 3.91658C7.04163 3.74992 6.87496 3.49992 6.79163 3.41659C6.62496 3.24992 6.45829 3.16659 6.20829 3.16659Z" fill="#593DA6"/>
</svg>
