<svg width="20" height="20" viewBox="0 0 20 20" fill="none" xmlns="http://www.w3.org/2000/svg">
<path fill-rule="evenodd" clip-rule="evenodd" d="M9.13004 2.87203C5.67343 2.87203 2.8713 5.67416 2.8713 9.13077C2.8713 12.5874 5.67343 15.3895 9.13004 15.3895C12.5866 15.3895 15.3888 12.5874 15.3888 9.13077C15.3888 5.67416 12.5866 2.87203 9.13004 2.87203ZM1.48047 9.13077C1.48047 4.90603 4.9053 1.4812 9.13004 1.4812C13.3548 1.4812 16.7796 4.90603 16.7796 9.13077C16.7796 13.3555 13.3548 16.7803 9.13004 16.7803C4.9053 16.7803 1.48047 13.3555 1.48047 9.13077Z" fill="#1A181E"/>
<path fill-rule="evenodd" clip-rule="evenodd" d="M13.5517 13.5504C13.8233 13.2788 14.2636 13.2788 14.5352 13.5504L18.3165 17.3317C18.5881 17.6033 18.5881 18.0436 18.3165 18.3151C18.0449 18.5867 17.6046 18.5867 17.333 18.3151L13.5517 14.5338C13.2801 14.2623 13.2801 13.8219 13.5517 13.5504Z" fill="#1A181E"/>
</svg>
