<svg width="20" height="20" viewBox="0 0 20 20" fill="none" xmlns="http://www.w3.org/2000/svg">
<path fill-rule="evenodd" clip-rule="evenodd" d="M1.1709 6.38151C1.1709 6.01332 1.46938 5.71484 1.83757 5.71484H18.161C18.5292 5.71484 18.8277 6.01332 18.8277 6.38151V16.3569C18.8277 17.0148 18.5663 17.6457 18.1012 18.1108C17.636 18.576 17.0051 18.8373 16.3473 18.8373H3.65128C2.99344 18.8373 2.36255 18.576 1.89739 18.1108C1.43222 17.6457 1.1709 17.0148 1.1709 16.3569V6.38151ZM2.50423 7.04818V16.3569C2.50423 16.6612 2.62508 16.9529 2.84019 17.168C3.05531 17.3831 3.34706 17.504 3.65128 17.504H16.3473C16.6515 17.504 16.9433 17.3831 17.1584 17.168C17.3735 16.9529 17.4943 16.6612 17.4943 16.3569V7.04818H2.50423Z" fill="#1A181E"/>
<path fill-rule="evenodd" clip-rule="evenodd" d="M13.6279 6.12354C13.2597 6.12354 12.9612 5.82506 12.9612 5.45687C12.9612 4.67163 12.6493 3.91854 12.094 3.36329C11.5388 2.80804 10.7857 2.49611 10.0005 2.49611C9.21522 2.49611 8.46214 2.80804 7.90688 3.36329C7.35163 3.91854 7.0397 4.67162 7.0397 5.45687C7.0397 5.82506 6.74122 6.12353 6.37303 6.12353C6.00484 6.12353 5.70636 5.82506 5.70636 5.45687C5.70636 4.318 6.15878 3.22578 6.96408 2.42048C7.76938 1.61518 8.86159 1.16277 10.0005 1.16277C11.1393 1.16277 12.2315 1.61518 13.0368 2.42048C13.8421 3.22578 14.2946 4.318 14.2946 5.45687C14.2946 5.82506 13.9961 6.12354 13.6279 6.12354Z" fill="#1A181E"/>
</svg>
