<svg width="20" height="20" viewBox="0 0 20 20" fill="none" xmlns="http://www.w3.org/2000/svg">
<path fill-rule="evenodd" clip-rule="evenodd" d="M10.0001 13.2198C7.71366 13.2198 5.58998 13.908 3.82242 15.0885C3.54186 15.2759 3.41375 15.48 3.36287 15.6553C3.31095 15.8342 3.32516 16.0319 3.41187 16.2282C3.58665 16.6237 4.06089 17.0024 4.76418 17.0024H15.236C15.9393 17.0024 16.4136 16.6237 16.5883 16.2282C16.6751 16.0319 16.6893 15.8342 16.6373 15.6553C16.5865 15.48 16.4584 15.2759 16.1778 15.0885C14.4102 13.908 12.2866 13.2198 10.0001 13.2198ZM3.08192 13.9797C5.06186 12.6574 7.44197 11.8865 10.0001 11.8865C12.5582 11.8865 14.9384 12.6574 16.9183 13.9797C17.4284 14.3204 17.7693 14.7721 17.9178 15.2836C18.0653 15.7916 18.0092 16.3116 17.8079 16.767C17.4068 17.675 16.4343 18.3357 15.236 18.3357H4.76418C3.56589 18.3357 2.59346 17.675 2.19229 16.767C1.99103 16.3116 1.93495 15.7916 2.0824 15.2836C2.23089 14.7721 2.57182 14.3204 3.08192 13.9797Z" fill="#1A181E"/>
<path fill-rule="evenodd" clip-rule="evenodd" d="M10 2.99764C8.44709 2.99764 7.18819 4.25654 7.18819 5.80946C7.18819 7.36239 8.44709 8.62129 10 8.62129C11.5529 8.62129 12.8118 7.36239 12.8118 5.80946C12.8118 4.25654 11.5529 2.99764 10 2.99764ZM5.85486 5.80946C5.85486 3.52016 7.71071 1.66431 10 1.66431C12.2893 1.66431 14.1452 3.52016 14.1452 5.80946C14.1452 8.09877 12.2893 9.95462 10 9.95462C7.71071 9.95462 5.85486 8.09877 5.85486 5.80946Z" fill="#1A181E"/>
</svg>
