<svg width="24" height="24" viewBox="0 0 24 24" fill="none" xmlns="http://www.w3.org/2000/svg">
<g clip-path="url(#clip0_408_1781)">
<path d="M24 12C24 18.6274 18.6274 24 12 24C5.37258 24 0 18.6274 0 12C0 5.37258 5.37258 0 12 0C18.6274 0 24 5.37258 24 12Z" fill="white"/>
<path fill-rule="evenodd" clip-rule="evenodd" d="M11.6464 7.64645C11.4512 7.84171 11.4512 8.15829 11.6464 8.35355L14.7929 11.5H8C7.72386 11.5 7.5 11.7239 7.5 12C7.5 12.2761 7.72386 12.5 8 12.5H14.7929L11.6464 15.6464C11.4512 15.8417 11.4512 16.1583 11.6464 16.3536C11.8417 16.5488 12.1583 16.5488 12.3536 16.3536L16.3536 12.3536C16.5488 12.1583 16.5488 11.8417 16.3536 11.6464L12.3536 7.64645C12.1583 7.45118 11.8417 7.45118 11.6464 7.64645Z" fill="#1A181E"/>
</g>
<defs>
<clipPath id="clip0_408_1781">
<rect width="24" height="24" fill="white"/>
</clipPath>
</defs>
</svg>
