<svg width="24" height="24" viewBox="0 0 24 24" fill="none" xmlns="http://www.w3.org/2000/svg">
<g clip-path="url(#clip0_408_1778)">
<path d="M24 12C24 18.6274 18.6274 24 12 24C5.37258 24 0 18.6274 0 12C0 5.37258 5.37258 0 12 0C18.6274 0 24 5.37258 24 12Z" fill="white"/>
<path fill-rule="evenodd" clip-rule="evenodd" d="M12.3536 7.64645C12.5488 7.84171 12.5488 8.15829 12.3536 8.35355L9.20711 11.5H16C16.2761 11.5 16.5 11.7239 16.5 12C16.5 12.2761 16.2761 12.5 16 12.5H9.20711L12.3536 15.6464C12.5488 15.8417 12.5488 16.1583 12.3536 16.3536C12.1583 16.5488 11.8417 16.5488 11.6464 16.3536L7.64645 12.3536C7.45118 12.1583 7.45118 11.8417 7.64645 11.6464L11.6464 7.64645C11.8417 7.45118 12.1583 7.45118 12.3536 7.64645Z" fill="#1A181E"/>
</g>
<defs>
<clipPath id="clip0_408_1778">
<rect width="24" height="24" fill="white"/>
</clipPath>
</defs>
</svg>
