<svg width="95" height="65" viewBox="0 0 95 65" fill="none" xmlns="http://www.w3.org/2000/svg">
<path d="M84.7313 22.2122C84.7397 22.0247 84.8204 21.8478 84.9566 21.7187C85.0927 21.5896 85.2737 21.5183 85.4613 21.5198L92.5295 21.4393C92.6278 21.4363 92.7256 21.4531 92.8173 21.4887C92.9089 21.5243 92.9924 21.578 93.0629 21.6466C93.1333 21.7151 93.1892 21.7972 93.2273 21.8878C93.2653 21.9785 93.2848 22.0759 93.2844 22.1742L93.2697 22.7396C93.2651 22.8376 93.2407 22.9337 93.198 23.0221C93.1553 23.1105 93.0951 23.1893 93.0211 23.2538C92.9472 23.3183 92.8609 23.3672 92.7676 23.3975C92.6742 23.4278 92.5757 23.439 92.4779 23.4302L85.4244 22.9453C85.2367 22.9359 85.0598 22.8545 84.9307 22.7179C84.8016 22.5813 84.7302 22.4001 84.7313 22.2122Z" fill="#593DA6"/>
<path d="M83.9004 18.9241C83.8583 18.8095 83.8635 18.6828 83.9148 18.572C83.9661 18.4612 84.0593 18.3753 84.174 18.3332L88.4639 16.6663C88.5859 16.618 88.722 16.6201 88.8424 16.672C88.9629 16.724 89.0578 16.8216 89.1063 16.9434L89.2375 17.2929C89.2594 17.3529 89.2686 17.4167 89.2646 17.4805C89.2606 17.5442 89.2433 17.6064 89.2141 17.6632C89.1848 17.7199 89.144 17.77 89.0944 17.8102C89.0448 17.8504 88.9874 17.8799 88.9258 17.8968L84.5047 19.2143C84.3859 19.2507 84.2578 19.241 84.1459 19.1873C84.0339 19.1335 83.9463 19.0396 83.9004 18.9241Z" fill="#593DA6"/>
<path d="M81.254 17.2326C80.932 17.0061 80.9027 16.5096 81.1878 16.1072L86.2486 8.96123C86.5509 8.53441 87.0875 8.37887 87.4291 8.61911L87.9051 8.95398C88.2467 9.19427 88.2558 9.73354 87.9249 10.1405L82.3881 16.9514C82.0762 17.3351 81.576 17.459 81.254 17.2326Z" fill="#593DA6"/>
<path d="M79.6941 19.0798L36.1997 8.72598C34.5879 8.34229 32.9702 9.33788 32.5865 10.9497L26.1904 37.8186C25.8067 39.4304 26.8023 41.0481 28.4141 41.4318L71.9085 51.7856C73.5203 52.1693 75.138 51.1737 75.5217 49.5619L81.9178 22.693C82.3015 21.0811 81.3059 19.4635 79.6941 19.0798Z" fill="#CFC2F2"/>
<path d="M81.3157 25.2296L31.9844 13.4863L30.6459 19.1088L79.9773 30.8521L81.3157 25.2296Z" fill="#593DA6"/>
<path d="M73.4086 46.2308L63.5995 43.8958C63.5683 43.8884 63.5369 43.9076 63.5295 43.9389L62.9081 46.5494C62.9006 46.5807 62.9199 46.612 62.9512 46.6195L72.7602 48.9545C72.7915 48.9619 72.8228 48.9427 72.8303 48.9114L73.4517 46.3009C73.4591 46.2696 73.4398 46.2383 73.4086 46.2308Z" fill="white"/>
<path d="M54.4945 4.97729L3.83642 22.4282C2.26991 22.9678 1.43746 24.6752 1.9771 26.2417L12.8881 57.9153C13.4278 59.4818 15.1352 60.3142 16.7017 59.7746L67.3597 42.3237C68.9263 41.7841 69.7587 40.0767 69.2191 38.5102L58.308 6.83661C57.7684 5.2701 56.061 4.43766 54.4945 4.97729Z" fill="#6553A2"/>
<path d="M53.4429 9.07152L47.5339 11.1071C46.594 11.4309 46.0945 12.4553 46.4183 13.3952L48.4539 19.3043C48.7777 20.2442 49.8021 20.7437 50.742 20.4199L56.651 18.3843C57.591 18.0605 58.0904 17.0361 57.7666 16.0962L55.7311 10.1871C55.4073 9.2472 54.3829 8.74774 53.4429 9.07152Z" fill="white"/>
<path d="M32.7454 37.3903L13.0902 44.1612C13.0339 44.1806 13.004 44.2419 13.0234 44.2982L14.0246 47.2045C14.044 47.2608 14.1053 47.2907 14.1616 47.2713L33.8168 40.5004C33.8731 40.481 33.903 40.4197 33.8836 40.3634L32.8824 37.4571C32.863 37.4008 32.8017 37.3709 32.7454 37.3903Z" fill="white"/>
<path d="M43.2079 40.5034L15.1566 50.1665C15.1003 50.1859 15.0704 50.2473 15.0898 50.3036L16.091 53.2098C16.1104 53.2661 16.1717 53.2961 16.228 53.2767L44.2793 43.6135C44.3356 43.5941 44.3655 43.5328 44.3461 43.4765L43.3449 40.5702C43.3255 40.5139 43.2642 40.484 43.2079 40.5034Z" fill="white"/>
</svg>
