<svg width="95" height="65" viewBox="0 0 95 65" fill="none" xmlns="http://www.w3.org/2000/svg">
<path d="M47.0576 28.2748C45.1905 31.8531 44.7194 33.7548 39.0557 37.3055C39.0117 37.3342 38.9787 37.3769 38.9622 37.4267C38.0573 40.2319 36.5256 42.7942 34.4832 44.9193C34.4557 44.9477 34.4364 44.9829 34.4272 45.0213C34.4181 45.0597 34.4195 45.0999 34.4313 45.1376C35.0652 47.2472 35.7513 51.0507 33.8424 54.1683C31.0365 58.7583 28.9584 55.9869 29.3911 54.9477C29.7618 54.0574 32.9279 52.1453 32.197 47.3684C32.1908 47.3302 32.175 47.2942 32.1509 47.2639C32.1268 47.2336 32.0953 47.21 32.0595 47.1954C32.0236 47.1808 31.9846 47.1756 31.9462 47.1805C31.9078 47.1853 31.8713 47.1999 31.8402 47.2229C29.5453 48.8886 26.9113 50.0276 24.1258 50.5589C24.0949 50.564 24.0654 50.5756 24.0393 50.5929C24.0132 50.6103 23.9911 50.6329 23.9743 50.6595C23.9576 50.686 23.9468 50.7158 23.9424 50.7468C23.9381 50.7778 23.9404 50.8095 23.9491 50.8395C24.6593 53.3821 24.9953 57.3555 22.0301 61.0099C20.4471 62.9151 18.3478 60.13 20.4471 58.2319C21.7495 57.0576 21.649 53.6802 21.0394 51.0787C21.0277 51.0282 20.9989 50.9833 20.9578 50.9517C20.9168 50.9202 20.866 50.9038 20.8142 50.9055C20.693 50.909 20.5682 50.909 20.4471 50.909C16.1624 50.9154 11.9969 49.4995 8.6036 46.8834C8.57256 46.8592 8.53574 46.8434 8.49676 46.8377C8.45778 46.832 8.41799 46.8365 8.38129 46.8509C8.3446 46.8652 8.31226 46.8888 8.28747 46.9194C8.26267 46.9501 8.24627 46.9866 8.23988 47.0255C7.4258 52.4015 10.6579 54.2618 11.1184 55.6405C11.6311 57.182 10.4533 58.5537 9.00194 58.1658C8.97047 58.1564 8.94109 58.1411 8.91536 58.1207C4.18352 54.5666 4.59572 47.119 5.11532 43.5338C5.12007 43.5044 5.11851 43.4744 5.11074 43.4458C5.10297 43.4171 5.08917 43.3904 5.07026 43.3675C2.42412 39.9623 0.991542 35.7707 1.00004 31.4582C1.00004 23.5499 5.7215 16.743 12.5006 13.7051C12.5011 13.7051 12.5015 13.7051 12.5019 13.7049C12.5024 13.7047 12.5028 13.7045 12.5031 13.7042C12.5034 13.7038 12.5037 13.7035 12.5038 13.703C12.504 13.7026 12.5041 13.7022 12.5041 13.7017C13.5467 12.3817 14.818 10.5148 15.0121 9.20542C15.0185 9.16106 15.038 9.11961 15.068 9.08637C15.0981 9.05314 15.1374 9.02962 15.1809 9.01883C15.2244 9.00805 15.2701 9.01047 15.3122 9.02581C15.3544 9.04114 15.3909 9.06869 15.4173 9.10492C15.9162 9.77692 16.6887 11.0586 16.5189 12.4096C16.512 12.4546 16.5085 12.4996 16.5016 12.5447C16.4877 12.6209 16.4704 12.6936 16.4531 12.7698C16.4358 12.8288 16.4219 12.8876 16.4011 12.9465C16.6434 12.7444 16.8746 12.5293 17.0936 12.3022C17.6028 11.7792 18.2471 10.9928 18.5242 10.1511C18.5374 10.1062 18.5641 10.0664 18.6007 10.0373C18.6373 10.0082 18.6821 9.99118 18.7288 9.98855C18.7755 9.98591 18.8218 9.99782 18.8615 10.0226C18.9012 10.0474 18.9322 10.0839 18.9502 10.1271C19.1302 10.5705 19.3417 11.1905 19.4144 11.8244C19.4207 11.8813 19.4479 11.9337 19.4909 11.9715C19.5338 12.0093 19.5893 12.0298 19.6465 12.0288C19.9132 12.0184 20.1799 12.0115 20.4467 12.0115C31.1886 12.0115 39.8972 20.72 39.8972 31.4585C39.8972 31.7045 39.8937 31.9469 39.8832 32.1893C39.8817 32.2263 39.8892 32.2632 39.9051 32.2966C39.9211 32.3301 39.9449 32.3592 39.9746 32.3813C40.0043 32.4035 40.0389 32.4181 40.0755 32.4239C40.1121 32.4297 40.1495 32.4265 40.1846 32.4145C41.3416 32.0092 42.8 31.0323 43.6798 28.708C45.3252 24.378 45.4985 23.1656 44.9789 19.7882C44.4593 16.4107 46.9709 16.5842 47.4902 17.7098C48.0096 18.8354 49.1358 24.2912 47.0576 28.2748Z" fill="#593DA6"/>
<path d="M12.8518 33.1639C12.7855 33.1638 12.7212 33.1418 12.6687 33.1013C12.6163 33.0608 12.5788 33.0041 12.5619 32.9401C12.4313 32.3696 12.4033 31.7804 12.4791 31.2001C12.6496 29.9387 13.336 29.0116 14.4641 28.5189C15.2013 28.1969 15.8981 28.1783 16.5352 28.4639C17.841 29.0491 18.3969 30.7085 18.4199 30.7789C18.4422 30.8538 18.4344 30.9345 18.3982 31.0037C18.3619 31.073 18.3001 31.1253 18.2258 31.1497C18.1515 31.174 18.0706 31.1684 18.0004 31.134C17.9302 31.0996 17.8762 31.0391 17.8499 30.9655C17.8452 30.9511 17.3507 29.4851 16.288 29.0105C15.8122 28.798 15.2794 28.8176 14.7045 29.0687C13.771 29.4767 13.2232 30.2147 13.0764 31.2626C13.0093 31.7712 13.0317 32.2876 13.1427 32.7884C13.1627 32.8655 13.1513 32.9473 13.111 33.0159C13.0708 33.0845 13.0049 33.1343 12.9279 33.1544C12.903 33.1608 12.8775 33.1639 12.8518 33.1639Z" fill="white"/>
<path d="M21.8927 30.4166C21.8298 30.4166 21.7686 30.3968 21.7175 30.36C21.6665 30.3233 21.6284 30.2715 21.6084 30.2119C21.441 29.6535 21.3747 29.0697 21.4128 28.488C21.5013 27.2235 22.1262 26.2575 23.2201 25.6946C23.9363 25.3262 24.6314 25.2626 25.2867 25.5069C26.6247 26.0049 27.286 27.6141 27.3135 27.6823C27.3423 27.756 27.341 27.838 27.3096 27.9106C27.2783 27.9832 27.2196 28.0405 27.1463 28.07C27.0729 28.0996 26.9909 28.099 26.918 28.0684C26.8451 28.0378 26.7872 27.9796 26.757 27.9066C26.751 27.8926 26.1642 26.4721 25.0751 26.0683C24.5853 25.8867 24.0537 25.9404 23.4947 26.2282C22.5899 26.6938 22.0913 27.462 22.0127 28.5118C21.9788 29.021 22.0347 29.5322 22.1777 30.022C22.1926 30.0671 22.1965 30.1151 22.1893 30.1621C22.182 30.209 22.1637 30.2535 22.1359 30.292C22.1081 30.3305 22.0716 30.3619 22.0293 30.3836C21.9871 30.4052 21.9403 30.4165 21.8928 30.4166H21.8927Z" fill="white"/>
<path d="M21.1291 36.6929C19.0872 36.6929 17.5303 35.3339 17.4524 35.2649C17.4229 35.2388 17.3989 35.2071 17.3817 35.1716C17.3645 35.1362 17.3544 35.0977 17.3521 35.0584C17.3498 35.019 17.3552 34.9796 17.3681 34.9424C17.381 34.9052 17.4011 34.8709 17.4272 34.8414C17.4534 34.8119 17.4851 34.7879 17.5205 34.7707C17.556 34.7535 17.5945 34.7435 17.6338 34.7411C17.6731 34.7388 17.7125 34.7442 17.7498 34.7571C17.787 34.77 17.8213 34.7901 17.8508 34.8163C17.8712 34.8343 19.9272 36.6212 22.242 35.9312C24.546 35.2447 25.1779 32.3192 25.184 32.2898C25.2009 32.2127 25.2474 32.1453 25.3136 32.1022C25.3798 32.0592 25.4603 32.044 25.5377 32.0599C25.615 32.0758 25.6829 32.1216 25.7268 32.1873C25.7706 32.253 25.7867 32.3333 25.7717 32.4108C25.629 33.0168 25.4056 33.6008 25.1074 34.1473C24.4487 35.3616 23.5174 36.1774 22.4134 36.5063C21.9966 36.6305 21.564 36.6934 21.1291 36.6929Z" fill="white"/>
<path d="M85.8004 23.3401C85.7746 23.9915 85.7084 24.6407 85.602 25.2838C84.1557 34.1313 75.815 40.1283 66.9676 38.6818C58.1236 37.2361 52.1231 28.8948 53.5696 20.0473C53.6618 19.4833 53.7837 18.9313 53.9278 18.393C47.366 13.9368 47.7493 5.34378 49.0071 4.3911C50.2775 3.42642 51.6644 4.2393 51.5195 6.9078C51.3704 10.783 53.7563 13.9878 55.0796 15.3837C58.1777 9.20712 65.025 5.4756 72.2041 6.6492C79.1713 7.78806 84.3687 13.2042 85.5589 19.7729C86.8576 19.3008 89.1511 17.9382 91.0093 14.0651C91.2688 13.2932 91.3405 12.7258 91.3543 12.384C91.3636 12.0648 91.4883 11.7597 91.7052 11.5253C92.1116 11.1003 92.8312 10.6493 93.7605 11.3418C93.9718 11.4998 94.1422 11.7062 94.2573 11.9437C94.3724 12.1811 94.4289 12.4427 94.4219 12.7065C94.3638 14.7997 92.6888 19.8926 85.8004 23.3401Z" fill="#6553A2"/>
<path d="M76.1497 26.21C75.7401 28.7159 72.2938 30.2374 68.4546 29.6099C64.612 28.9817 61.8296 26.4419 62.2392 23.9361C62.3172 23.4694 62.4995 23.0264 62.7726 22.6401C62.8473 22.5355 62.9592 22.4635 63.0853 22.4389C63.2115 22.4144 63.3422 22.4391 63.4506 22.5081C64.8261 23.3693 67.0033 24.1287 69.5152 24.5393C71.827 24.9173 73.9664 24.923 75.5233 24.6276C75.65 24.6033 75.7813 24.6287 75.8899 24.6985C75.9984 24.7683 76.076 24.8773 76.1064 25.0027C76.2001 25.3984 76.2148 25.8086 76.1497 26.21Z" fill="white"/>
<path d="M68.862 21.2377C68.8185 21.2378 68.7755 21.2284 68.7359 21.2101C68.6964 21.1919 68.6613 21.1653 68.6331 21.1321C68.6049 21.099 68.5843 21.0601 68.5726 21.0182C68.5609 20.9762 68.5585 20.9323 68.5655 20.8893C68.6662 20.2733 68.5181 19.6425 68.1537 19.1358C67.7893 18.629 67.2386 18.2877 66.6226 18.187C66.0066 18.0863 65.3758 18.2345 64.869 18.5989C64.3623 18.9632 64.021 19.514 63.9203 20.13C63.9075 20.2085 63.8639 20.2787 63.7993 20.3252C63.7347 20.3716 63.6543 20.3905 63.5758 20.3777C63.4973 20.3648 63.4271 20.3213 63.3806 20.2567C63.3342 20.1921 63.3153 20.1117 63.3282 20.0332C63.4545 19.2601 63.8828 18.5689 64.5188 18.1117C65.1548 17.6544 65.9463 17.4685 66.7194 17.5948C67.4924 17.7212 68.1836 18.1495 68.6409 18.7855C69.0981 19.4215 69.284 20.213 69.1577 20.9861C69.1462 21.0563 69.1102 21.1201 69.056 21.1662C69.0019 21.2123 68.9331 21.2376 68.862 21.2377Z" fill="white"/>
<path d="M76.0574 22.4142C76.0139 22.4141 75.9709 22.4047 75.9314 22.3864C75.8919 22.3681 75.8569 22.3415 75.8287 22.3084C75.8005 22.2752 75.7799 22.2364 75.7682 22.1945C75.7565 22.1526 75.754 22.1086 75.761 22.0657C75.8592 21.4508 75.7097 20.8221 75.3452 20.3172C74.9808 19.8123 74.4311 19.4724 73.8166 19.372C73.2021 19.2715 72.5728 19.4187 72.0666 19.7813C71.5604 20.1439 71.2185 20.6923 71.1158 21.3064C71.1095 21.3454 71.0956 21.3828 71.0749 21.4164C71.0542 21.45 71.0271 21.4792 70.9951 21.5023C70.9631 21.5254 70.9268 21.5419 70.8884 21.551C70.8499 21.56 70.8101 21.5614 70.7711 21.5551C70.7322 21.5487 70.6949 21.5347 70.6613 21.5139C70.6278 21.493 70.5987 21.4658 70.5757 21.4337C70.5527 21.4016 70.5362 21.3653 70.5273 21.3269C70.5184 21.2884 70.5171 21.2486 70.5236 21.2096C70.6521 20.4386 71.0811 19.7499 71.7165 19.2945C72.3519 18.8392 73.1419 18.6543 73.9133 18.7804C74.6848 18.9065 75.3748 19.3333 75.8322 19.9673C76.2895 20.6013 76.4768 21.3907 76.3531 22.1625C76.3416 22.2327 76.3056 22.2966 76.2514 22.3427C76.1973 22.3888 76.1285 22.4141 76.0574 22.4142Z" fill="white"/>
</svg>
