<svg width="95" height="65" viewBox="0 0 95 65" fill="none" xmlns="http://www.w3.org/2000/svg">
<path d="M49.0017 14.834C48.8441 14.6754 48.754 14.462 48.7501 14.2385C48.7463 14.0149 48.8289 13.7986 48.9809 13.6346L54.5865 7.58424C54.6659 7.49854 54.7618 7.42979 54.8684 7.3821C54.9751 7.33442 55.0903 7.3088 55.2071 7.30677C55.3239 7.30475 55.4399 7.32636 55.5481 7.37032C55.6564 7.41428 55.7546 7.47967 55.8369 7.56256L56.3209 8.04986C56.4032 8.13276 56.4679 8.23146 56.5111 8.34001C56.5543 8.44856 56.5751 8.56473 56.5722 8.68152C56.5694 8.79832 56.543 8.91334 56.4945 9.01965C56.4461 9.12597 56.3766 9.2214 56.2904 9.3002L50.201 14.8632C50.036 15.014 49.819 15.0952 49.5955 15.0898C49.372 15.0843 49.1592 14.9927 49.0017 14.834Z" fill="#593DA6"/>
<path d="M45.4512 12.7721C45.3172 12.7127 45.2113 12.6038 45.1557 12.4682C45.1001 12.3325 45.0991 12.1807 45.1529 12.0443L47.1367 7.01306C47.1648 6.9418 47.207 6.87695 47.2608 6.82243C47.3146 6.7679 47.3789 6.72482 47.4498 6.69576C47.5207 6.66671 47.5967 6.6523 47.6733 6.65338C47.7499 6.65446 47.8255 6.67102 47.8955 6.70206L48.3072 6.88454C48.3772 6.91558 48.4402 6.96046 48.4925 7.01649C48.5447 7.07251 48.5851 7.13852 48.6112 7.21055C48.6373 7.28258 48.6485 7.35914 48.6442 7.43562C48.64 7.51211 48.6203 7.58694 48.5863 7.65562L46.191 12.5044C46.1261 12.6358 46.0128 12.7371 45.875 12.787C45.7371 12.8369 45.5853 12.8316 45.4512 12.7721Z" fill="#593DA6"/>
<path d="M41.8456 13.5944C41.3884 13.6767 40.9298 13.2844 40.8057 12.7052L38.6055 2.41933C38.4742 1.80463 38.7686 1.22001 39.2536 1.13259L39.9294 1.01094C40.4144 0.923622 40.8944 1.36903 40.9855 1.99079L42.51 12.3982C42.5958 12.9846 42.3028 13.5121 41.8456 13.5944Z" fill="#593DA6"/>
<path d="M77.4054 23.2744L67.7018 22.0235C67.5385 22.0061 67.3736 22.0388 67.2294 22.1175C67.0851 22.1961 66.9682 22.3169 66.8944 22.4637L64.3141 27.5583L53.5133 49.1597C53.3985 49.3879 53.2062 49.5677 52.9708 49.6669C52.7354 49.7661 52.4724 49.7782 52.2289 49.701L22.9121 40.3432C22.8312 40.3174 22.7454 40.3112 22.6616 40.325C22.5779 40.3388 22.4986 40.3724 22.4303 40.4228C22.3621 40.4733 22.3068 40.5392 22.269 40.6152C22.2312 40.6912 22.2119 40.7751 22.2129 40.86L22.2263 42.0774C22.228 42.2466 22.283 42.4111 22.3835 42.5472C22.4841 42.6834 22.625 42.7844 22.7863 42.8358L53.8043 52.7362C54.1501 52.8466 54.4605 53.0464 54.7042 53.3154C54.9479 53.5844 55.1161 53.9131 55.1919 54.2681L55.2023 54.3165C55.4721 55.7985 54.0116 57.0152 52.5723 56.5784L18.56 45.708C18.3856 45.6525 18.2353 45.5391 18.134 45.3866C18.0328 45.234 17.9867 45.0515 18.0033 44.8692L20.6652 15.8014C20.6786 15.6515 20.7233 15.5061 20.7965 15.3747C20.8698 15.2432 20.9698 15.1286 21.0902 15.0384C21.2105 14.9481 21.3486 14.8841 21.4953 14.8506C21.6419 14.8172 21.794 14.8149 21.9417 14.844L62.6877 22.8149L65.3121 17.5993C65.3879 17.4519 65.5071 17.3313 65.6536 17.2538C65.8001 17.1763 65.9668 17.1455 66.1313 17.1658L78.0139 18.6874C78.1193 18.7007 78.2211 18.7347 78.3132 18.7875C78.4054 18.8403 78.4862 18.9109 78.5509 18.9952C78.6156 19.0794 78.6629 19.1757 78.6902 19.2784C78.7175 19.381 78.7241 19.4881 78.7097 19.5934L78.3045 22.5821C78.2764 22.7929 78.1661 22.9839 77.9976 23.1136C77.8292 23.2433 77.6163 23.3011 77.4054 23.2744Z" fill="#6553A2"/>
<path d="M22.3047 35.3664L25.6249 36.4261L28.8097 20.2763L23.7126 19.4937L22.3047 35.3664Z" fill="#EEE8FF"/>
<path d="M48.3594 43.6813L51.6795 44.7411L60.2659 26.6569L56.6088 25.771L48.3594 43.6813Z" fill="#EEE8FF"/>
<path d="M35.5898 39.6056L38.6546 40.5839L45.2195 23.5429L40.2039 22.5049L35.5898 39.6056Z" fill="#EEE8FF"/>
<path d="M31.7048 20.9175L36.7203 21.9555L32.2693 38.5455L28.9492 37.4857L31.7048 20.9175Z" fill="#EEE8FF"/>
<path d="M53.4631 25.0478L48.4476 24.0098L42.2305 41.7245L45.2953 42.7027L53.4631 25.0478Z" fill="#EEE8FF"/>
<path d="M22.9498 56.2024C25.0967 56.2024 26.8372 54.462 26.8372 52.3151C26.8372 50.1681 25.0967 48.4277 22.9498 48.4277C20.8029 48.4277 19.0625 50.1681 19.0625 52.3151C19.0625 54.462 20.8029 56.2024 22.9498 56.2024Z" fill="#CFC2F2"/>
<path d="M47.2115 63.9465C49.3585 63.9465 51.0989 62.2061 51.0989 60.0592C51.0989 57.9123 49.3585 56.1719 47.2115 56.1719C45.0646 56.1719 43.3242 57.9123 43.3242 60.0592C43.3242 62.2061 45.0646 63.9465 47.2115 63.9465Z" fill="#CFC2F2"/>
<path d="M79.1523 18.5264L68.9114 17.2443C68.8546 17.2372 68.8028 17.2775 68.7957 17.3342L68.175 22.2924C68.1679 22.3491 68.2081 22.4009 68.2649 22.408L78.5058 23.6901C78.5626 23.6973 78.6144 23.657 78.6215 23.6002L79.2422 18.6421C79.2493 18.5853 79.2091 18.5335 79.1523 18.5264Z" fill="#CFC2F2"/>
</svg>
