<svg width="95" height="65" viewBox="0 0 95 65" fill="none" xmlns="http://www.w3.org/2000/svg">
<path d="M47.2005 26.7786V63.1806L18.9375 50.973L19.0723 14.7026L47.2005 26.7786Z" fill="#593DA6"/>
<path d="M47.1992 26.7999V63.2019L75.3248 51.4159V14.8184L47.1992 26.7999Z" fill="#CFC2F2"/>
<path d="M47.2006 26.7785L75.4637 14.9406L47.4226 2.51074L18.9375 14.6447L47.2006 26.7785Z" fill="#593DA6"/>
<path d="M11.2185 21.1383L39.6616 34.9443C39.738 34.9813 39.8245 34.9923 39.9078 34.9755C39.9911 34.9586 40.0665 34.9149 40.1225 34.851L47.1997 26.7784L18.9367 14.6445L11.1552 20.479C11.102 20.5189 11.0599 20.5718 11.0331 20.6327C11.0062 20.6935 10.9954 20.7602 11.0018 20.8264C11.0081 20.8926 11.0314 20.9561 11.0694 21.0107C11.1073 21.0653 11.1587 21.1092 11.2185 21.1383Z" fill="#6553A2"/>
<path d="M75.4623 14.9404L83.3118 22.0371C83.3597 22.0803 83.396 22.1349 83.4175 22.1958C83.439 22.2567 83.445 22.3219 83.4348 22.3857C83.4247 22.4495 83.3988 22.5097 83.3595 22.5609C83.3202 22.6122 83.2688 22.6528 83.2098 22.6791L55.1174 35.2167C55.0424 35.2502 54.9587 35.259 54.8784 35.2418C54.798 35.2247 54.7252 35.1825 54.6704 35.1213L47.1992 26.7784L75.4623 14.9404Z" fill="#6553A2"/>
<path d="M47.4219 2.51019L75.5417 14.94L79.5857 14.0027C79.6652 13.9843 79.7369 13.9412 79.7905 13.8797C79.8441 13.8182 79.877 13.7413 79.8844 13.66C79.8918 13.5787 79.8733 13.4971 79.8316 13.4269C79.79 13.3567 79.7272 13.3015 79.6524 13.269L53.9756 2.14329C53.9194 2.11894 53.8583 2.10825 53.7972 2.11209L47.4219 2.51019Z" fill="#6553A2"/>
<path d="M47.423 2.51034L19.4609 14.7022L15.9261 14.1082C15.8443 14.0929 15.7695 14.0517 15.7129 13.9907C15.6563 13.9296 15.6208 13.852 15.6117 13.7692C15.6026 13.6865 15.6204 13.603 15.6624 13.5311C15.7044 13.4593 15.7685 13.4028 15.845 13.3702L42.1564 2.03095C42.2146 2.00623 42.2779 1.99607 42.3409 2.00136L47.423 2.51034Z" fill="#6553A2"/>
</svg>
