<svg width="24" height="24" viewBox="0 0 24 24" fill="none" xmlns="http://www.w3.org/2000/svg">
<mask id="mask0_0_71" style="mask-type:luminance" maskUnits="userSpaceOnUse" x="4" y="4" width="17" height="17">
<path d="M4 4H20.01V20.01H4V4Z" fill="white"/>
</mask>
<g mask="url(#mask0_0_71)">
<path d="M12 20.01C16.42 20.01 20 16.43 20 12.01C20 7.59 16.43 4 12 4C7.57 4 4 7.58 4 12C4 16.42 7.58 20 12 20V20.01Z" fill="url(#paint0_linear_0_71)"/>
<path d="M12 4C7.58 4 4 7.58 4 12C4 16.42 7.58 20 12 20C16.42 20 20 16.42 20 12C20 7.58 16.42 4 12 4ZM12 18.3C8.53 18.3 5.71 15.48 5.71 12C5.71 8.52 8.53 5.7 12 5.7C15.47 5.7 18.3 8.52 18.3 11.99C18.3 15.46 15.48 18.29 12 18.29V18.3Z" fill="url(#paint1_linear_0_71)"/>
<path opacity="0.3" d="M7.68001 16.21C5.28001 13.81 5.22001 9.93998 7.52001 7.47998C7.47001 7.51998 7.41001 7.57998 7.36001 7.63998C6.77519 8.22309 6.31118 8.91588 5.99458 9.67863C5.67798 10.4414 5.51501 11.2591 5.51501 12.085C5.51501 12.9108 5.67798 13.7286 5.99458 14.4913C6.31118 15.2541 6.77519 15.9469 7.36001 16.53C9.82001 18.98 13.81 18.99 16.26 16.53L16.42 16.37C13.96 18.67 10.09 18.62 7.68001 16.21Z" fill="white"/>
<path opacity="0.2" d="M16.33 16.4499C17.4176 15.2904 18.0221 13.7597 18.02 12.1699C18.02 8.68989 15.2 5.87989 11.73 5.87989C10.03 5.87989 8.48999 6.54989 7.35999 7.64989C7.94667 7.01236 8.65937 6.50363 9.45292 6.15591C10.2465 5.8082 11.1036 5.62907 11.97 5.62989C15.44 5.62989 18.26 8.44989 18.26 11.9199C18.26 13.6999 17.52 15.3099 16.33 16.4499Z" fill="#1A181E"/>
<path d="M9.28997 7.55005C9.28997 7.55005 9.19997 11.18 9.96997 12.99C10.74 14.8 12.5 17.27 12.98 16.84C13.27 16.58 11.51 15.15 11.6 13.86C11.93 13.91 15 14.9 15.14 14.46C15.3 13.9 11.96 13.63 11.67 12.59C11.45 11.82 13.02 10.71 14.15 9.72005C13.22 9.79005 11.69 11.32 10.7 10.96C9.78997 10.62 9.59997 8.50005 9.29997 7.55005H9.28997Z" fill="#FCEFE9"/>
<path d="M11.1701 10.82C11.5201 10.72 11.7301 10.35 11.6401 10C11.5933 9.83082 11.4828 9.68631 11.3318 9.59682C11.1807 9.50732 11.0009 9.4798 10.8301 9.52001C10.4801 9.62001 10.2701 9.99001 10.3601 10.34C10.4601 10.69 10.8201 10.91 11.1701 10.82Z" fill="#FCEFE9"/>
<path opacity="0.2" d="M11.19 11.0101C11 11.0401 10.83 11.0301 10.66 10.9701C9.75001 10.6301 9.55001 8.51006 9.26001 7.56006H9.56001C9.77001 8.23006 9.92001 9.46006 10.31 10.2601C10.42 10.4901 10.54 10.6801 10.7 10.8001C10.78 10.8701 10.86 10.9301 10.95 10.9601C11.03 10.9901 11.1 11.0001 11.17 11.0001L11.19 11.0101ZM13.26 16.8401C13.26 16.8401 13.18 16.8701 13.12 16.8701C13.07 16.8901 13.01 16.8701 12.96 16.8701H12.9C12.9 16.8701 12.94 16.8401 12.96 16.8301C13.14 16.6701 12.5 16.0301 12.03 15.2601C11.76 14.8101 11.55 14.3301 11.58 13.8701C11.63 13.8701 11.74 13.9001 11.88 13.9501C11.88 15.2001 13.54 16.6001 13.26 16.8401ZM15.41 14.4701C15.38 14.5701 15.18 14.6001 14.91 14.5701C15.02 14.5501 15.09 14.5301 15.11 14.4701C15.26 13.9101 11.93 13.6401 11.64 12.6001C11.44 11.8801 12.79 10.8601 13.89 9.92006C13.97 9.86006 14.05 9.79006 14.11 9.73006H14.41C13.28 10.7301 11.72 11.8301 11.94 12.6001C12.23 13.6401 15.57 13.9101 15.41 14.4701ZM11.68 10.7101H11.66C11.6 10.7601 11.53 10.8101 11.45 10.8201C11.39 10.8401 11.34 10.8501 11.28 10.8501C11.23 10.8501 11.17 10.8501 11.12 10.8301H11.15C11.5 10.7301 11.71 10.3601 11.62 10.0101C11.5903 9.89441 11.5301 9.78886 11.4456 9.70443C11.3612 9.62 11.2557 9.55978 11.14 9.53006C11.49 9.46006 11.82 9.67006 11.92 10.0101C11.954 10.1389 11.9493 10.2749 11.9067 10.4011C11.864 10.5273 11.7852 10.6382 11.68 10.7201V10.7101Z" fill="#1A181E"/>
<path opacity="0.2" d="M10.7099 10.79C10.6191 10.7493 10.5386 10.6886 10.4745 10.6124C10.4104 10.5362 10.3644 10.4465 10.3399 10.35C10.3399 10.32 10.3199 10.29 10.3199 10.26C10.4299 10.48 10.5499 10.67 10.7099 10.79ZM11.6599 10.72C11.5999 10.76 11.5299 10.81 11.4499 10.82C11.3899 10.84 11.3399 10.85 11.2799 10.85L11.6599 10.72ZM14.4199 9.72998L13.8899 9.91998C13.9699 9.85998 14.0499 9.78998 14.1199 9.72998H14.4199Z" fill="#1A181E"/>
</g>
<defs>
<linearGradient id="paint0_linear_0_71" x1="17.92" y1="17.93" x2="6.6" y2="6.61" gradientUnits="userSpaceOnUse">
<stop stop-color="#7C675F"/>
<stop offset="0.5" stop-color="#C9AC97"/>
<stop offset="1" stop-color="#7C675F"/>
</linearGradient>
<linearGradient id="paint1_linear_0_71" x1="17.18" y1="17.18" x2="5.87" y2="5.87" gradientUnits="userSpaceOnUse">
<stop stop-color="#7C675F"/>
<stop offset="0.6" stop-color="#C9AC97"/>
<stop offset="1" stop-color="#7C675F"/>
</linearGradient>
</defs>
</svg>
