<svg width="756" height="187" viewBox="0 0 756 187" fill="none" xmlns="http://www.w3.org/2000/svg">
<path d="M1.8626 134.134L7.09509 147.448C12.3276 160.762 22.7925 187.391 33.2575 183.784C43.7225 180.178 54.1875 146.337 64.6524 133.935C75.1174 121.534 85.5824 130.572 96.0473 139.617C106.512 148.662 116.977 157.714 127.442 149.487C137.907 141.26 148.372 115.753 158.837 112.221C169.302 108.689 179.767 127.131 190.232 139.914C200.697 152.697 211.162 159.82 221.627 158.696C232.092 157.571 242.557 148.197 253.022 133.642C263.487 119.087 273.952 99.3505 284.417 91.4151C294.882 83.4797 305.347 87.3455 315.812 97.4698C326.277 107.594 336.742 123.977 347.207 129.371C357.672 134.765 368.137 129.17 378.602 114.339C389.067 99.5077 399.531 75.4402 409.996 69.2192C420.461 62.9982 430.926 74.6238 441.391 71.8337C451.856 69.0436 462.321 51.8378 472.786 40.9838C483.251 30.1299 493.716 25.6277 504.181 37.4758C514.646 49.3239 525.111 77.5224 535.576 89.3963C546.041 101.27 556.506 96.8198 566.971 84.263C577.436 71.7063 587.901 51.0434 598.366 47.6983C608.831 44.3533 619.296 58.3262 629.761 66.4254C640.226 74.5245 650.691 76.7499 661.156 74.5601C671.621 72.3702 682.086 65.7652 692.551 51.8011C703.016 37.8369 713.481 16.5137 723.946 7.67843C734.41 -1.15686 744.876 2.49578 750.108 4.3221L755.34 6.14842" stroke="url(#paint0_linear_401_348)" stroke-width="4"/>
<defs>
<linearGradient id="paint0_linear_401_348" x1="-368.41" y1="258.173" x2="726.477" y2="-41.6591" gradientUnits="userSpaceOnUse">
<stop stop-color="#9747FF"/>
<stop offset="1" stop-color="#14F195"/>
</linearGradient>
</defs>
</svg>
