<svg width="32" height="32" viewBox="0 0 32 32" fill="none" xmlns="http://www.w3.org/2000/svg">
<rect width="32" height="32" rx="16" fill="white" fill-opacity="0.08"/>
<path d="M23.6969 13.9625C23.8187 13.8656 24 13.9562 24 14.1094V20.5C24 21.3281 23.3281 22 22.5 22H9.5C8.67187 22 8 21.3281 8 20.5V14.1125C8 13.9563 8.17812 13.8687 8.30312 13.9656C9.00312 14.5094 9.93125 15.2 13.1187 17.5156C13.7781 17.9969 14.8906 19.0094 16 19.0031C17.1156 19.0125 18.25 17.9781 18.8844 17.5156C22.0719 15.2 22.9969 14.5062 23.6969 13.9625ZM16 18C16.725 18.0125 17.7687 17.0875 18.2937 16.7063C22.4406 13.6969 22.7562 13.4344 23.7125 12.6844C23.8937 12.5437 24 12.325 24 12.0938V11.5C24 10.6719 23.3281 10 22.5 10H9.5C8.67187 10 8 10.6719 8 11.5V12.0938C8 12.325 8.10625 12.5406 8.2875 12.6844C9.24375 13.4312 9.55938 13.6969 13.7062 16.7063C14.2312 17.0875 15.275 18.0125 16 18Z" fill="white" fill-opacity="0.64"/>
</svg>
