<svg width="32" height="32" viewBox="0 0 32 32" fill="none" xmlns="http://www.w3.org/2000/svg">
<rect width="32" height="32" rx="16" fill="white" fill-opacity="0.08"/>
<path d="M13.1337 22C19.3011 22 22.6749 16.9973 22.6749 12.6665C22.6749 12.5265 22.6749 12.3845 22.6687 12.2445C23.3256 11.779 23.8925 11.2027 24.3429 10.5426C23.7293 10.8074 23.0791 10.982 22.4134 11.0606C23.1146 10.6502 23.6398 10.0046 23.8914 9.24368C23.2325 9.62578 22.5114 9.89402 21.7597 10.0366C21.2542 9.50969 20.5854 9.1606 19.8568 9.04345C19.1282 8.92629 18.3805 9.04761 17.7295 9.38861C17.0784 9.72961 16.5604 10.2713 16.2556 10.9297C15.9509 11.588 15.8764 12.3264 16.0437 13.0305C14.7105 12.965 13.4062 12.626 12.2155 12.0353C11.0247 11.4446 9.9741 10.6155 9.13174 9.60166C8.70411 10.3247 8.57361 11.18 8.76673 11.9938C8.95986 12.8076 9.46213 13.519 10.1716 13.9834C9.63994 13.9657 9.12002 13.826 8.65371 13.5754V13.6204C8.65463 14.3779 8.92266 15.1118 9.41251 15.6981C9.90235 16.2844 10.584 16.6872 11.3421 16.8383C11.0543 16.9159 10.7571 16.9546 10.4586 16.9533C10.2481 16.9539 10.0381 16.9348 9.83142 16.8963C10.0457 17.5483 10.4629 18.1184 11.0247 18.5267C11.5865 18.935 12.2646 19.161 12.9641 19.1732C11.7758 20.0869 10.3078 20.5825 8.79671 20.5801C8.53045 20.5812 8.26437 20.5661 8 20.5351C9.53369 21.4923 11.3148 22.0005 13.1337 22Z" fill="white" fill-opacity="0.64"/>
</svg>
